<mxfile host="app.diagrams.net" modified="2023-07-28T15:29:33.172Z" agent="Mozilla/5.0 (Macintosh; Intel Mac OS X 10_15_7) AppleWebKit/537.36 (KHTML, like Gecko) Chrome/114.0.0.0 Safari/537.36" version="21.6.5" etag="leLNtVQ--KvlvyGwCspz" type="github">
  <diagram name="第 1 页" id="NnbksHmk1bgGHGXSJBLB">
    <mxGraphModel>
      <root>
        <mxCell id="0" />
        <mxCell id="1" parent="0" />
      </root>
    </mxGraphModel>
  </diagram>
</mxfile>
